<svg version="1.1" xmlns="http://www.w3.org/2000/svg" xmlns:xlink="http://www.w3.org/1999/xlink" x="0px" y="0px" viewBox="0 0 500 100" enable-background="new 0 0 500 100" xml:space="preserve">
<path fill-rule="evenodd" clip-rule="evenodd" fill="#E22F22" d="M500,11.221v77.602c0,5.531-4.226,10.082-9.638,10.563H98.767
	V0.618h390.64C495.264,0.618,500,5.365,500,11.221z"></path>
<path fill-rule="evenodd" clip-rule="evenodd" fill="#C3C9CC" d="M98.767,0.618v98.767H9.658C4.246,98.904,0,94.363,0,88.822V11.221
	C0,5.365,4.747,0.618,10.605,0.618H98.767z"></path>
<linearGradient id="svg_id_1_gradient_1" gradientUnits="userSpaceOnUse" x1="299.3838" y1="0.6157" x2="299.3838" y2="99.3853">
	<stop offset="0" style="stop-color:#851618;stop-opacity:0.4"></stop>
	<stop offset="0.4105" style="stop-color:#BD2226;stop-opacity:0"></stop>
	<stop offset="0.5346" style="stop-color:#BB2226;stop-opacity:0.3803"></stop>
	<stop offset="0.6438" style="stop-color:#B32227;stop-opacity:0.715"></stop>
	<stop offset="0.7368" style="stop-color:#A72328"></stop>
	<stop offset="0.7879" style="stop-color:#9F2124"></stop>
	<stop offset="0.8368" style="stop-color:#9A1F22"></stop>
	<stop offset="0.8712" style="stop-color:#A21F23"></stop>
	<stop offset="0.925" style="stop-color:#B91F24"></stop>
	<stop offset="0.9913" style="stop-color:#E31E25"></stop>
	<stop offset="0.9947" style="stop-color:#E71E25"></stop>
</linearGradient>
<path fill-rule="evenodd" clip-rule="evenodd" fill="url(#svg_id_1_gradient_1)" d="M500,11.221v77.602c0,5.531-4.226,10.082-9.638,10.563
	H98.767V0.616h390.64C495.264,0.616,500,5.365,500,11.221z"></path>
<linearGradient id="svg_id_1_gradient_2" gradientUnits="userSpaceOnUse" x1="49.3833" y1="0.6157" x2="49.3833" y2="99.3853">
	<stop offset="0" style="stop-color:#000000;stop-opacity:0.4"></stop>
	<stop offset="0.4105" style="stop-color:#000000;stop-opacity:0"></stop>
	<stop offset="0.4945" style="stop-color:#0B0B0C;stop-opacity:0.2615"></stop>
	<stop offset="0.5509" style="stop-color:#262627;stop-opacity:0.4372"></stop>
	<stop offset="0.5992" style="stop-color:#424243;stop-opacity:0.5876"></stop>
	<stop offset="0.6429" style="stop-color:#565659;stop-opacity:0.7238"></stop>
	<stop offset="0.6836" style="stop-color:#6D6E70;stop-opacity:0.8504"></stop>
	<stop offset="0.7214" style="stop-color:#86888A;stop-opacity:0.9684"></stop>
	<stop offset="0.7316" style="stop-color:#8D9092"></stop>
	<stop offset="0.8289" style="stop-color:#8F9194"></stop>
	<stop offset="0.8838" style="stop-color:#95989A"></stop>
	<stop offset="0.9281" style="stop-color:#A0A2A5"></stop>
	<stop offset="0.9666" style="stop-color:#B0B2B4"></stop>
	<stop offset="0.9947" style="stop-color:#C0C2C4"></stop>
</linearGradient>
<path fill-rule="evenodd" clip-rule="evenodd" fill="url(#svg_id_1_gradient_2)" d="M98.767,0.616v98.769H9.658C4.246,98.904,0,94.361,0,88.822
	V11.221C0,5.365,4.747,0.616,10.605,0.616H98.767z"></path>
<path fill-rule="evenodd" clip-rule="evenodd" d="M467.598,29.938L467.598,29.938c-12.783,0-23.148,10.366-23.148,23.147
	c0,12.783,10.365,23.148,23.148,23.148l0,0c12.783,0,23.147-10.365,23.147-23.148C490.745,40.305,480.381,29.939,467.598,29.938z
	 M467.598,65.064L467.598,65.064c-6.613,0-11.976-5.363-11.976-11.979c0-6.614,5.362-11.978,11.976-11.978l0,0
	c6.612,0,11.976,5.364,11.976,11.978C479.573,59.701,474.21,65.064,467.598,65.064z"></path>
<path fill-rule="evenodd" clip-rule="evenodd" d="M329.819,31.48h34.383v43.211h-12.359V42.076h-9.664v16.473
	c0,0.924-0.031,1.936-0.095,3.027c-0.063,1.092-0.219,2.205-0.474,3.342c-0.546,2.605-1.899,4.971-4.065,7.094
	c-2.167,2.123-5.961,3.184-11.384,3.184c-0.672,0-1.27-0.01-1.796-0.031c-0.525-0.023-1.04-0.07-1.545-0.158
	c-0.296-0.039-0.589-0.094-0.884-0.156c-0.296-0.064-0.609-0.115-0.943-0.158V64.096c0.459,0.129,0.923,0.234,1.385,0.318
	c0.463,0.084,0.905,0.125,1.323,0.125c2.943,0,4.698-0.938,5.266-2.805c0.567-1.873,0.853-4.151,0.853-6.844V31.48L329.819,31.48z"></path>
<polygon fill-rule="evenodd" clip-rule="evenodd" points="371.918,74.691 371.918,31.48 399.695,31.48 399.695,42.076
	384.276,42.076 384.276,47.789 398.373,47.789 398.373,57.5 384.276,57.5 384.276,64.563 399.695,64.563 399.695,74.691
	371.918,74.691 "></polygon>
<path fill-rule="evenodd" clip-rule="evenodd" d="M439.82,73.039c-0.87,0.588-1.74,1.066-2.609,1.441
	c-0.867,0.377-1.737,0.689-2.604,0.939c-1.12,0.334-2.227,0.553-3.32,0.658c-1.1,0.105-2.164,0.156-3.198,0.156
	c-6.122,0-11.355-2.023-15.703-6.076c-4.344-4.053-6.516-9.732-6.516-17.041c0-7.643,2.276-13.417,6.825-17.322
	c4.553-3.905,9.623-5.857,15.209-5.857c0.745,0,1.507,0.042,2.294,0.124c0.786,0.085,1.594,0.21,2.422,0.377
	c1.239,0.25,2.472,0.626,3.693,1.127s2.392,1.128,3.508,1.879v12.717c-0.251-0.292-0.529-0.605-0.838-0.938
	c-0.311-0.336-0.672-0.67-1.087-1.004c-0.954-0.835-2.122-1.598-3.508-2.287c-1.386-0.689-3.011-1.032-4.872-1.032
	c-3.52,0-6.248,1.24-8.19,3.726c-1.948,2.485-2.92,5.441-2.92,8.865c0,3.8,1.097,6.723,3.29,8.77c2.191,2.047,4.799,3.07,7.82,3.07
	c2.234,0,4.222-0.5,5.958-1.504c1.737-1.002,3.188-2.086,4.347-3.256V73.039z"></path>
<polygon fill-rule="evenodd" clip-rule="evenodd" points="271.547,31.48 271.606,31.48 271.547,31.555 271.547,31.48 "></polygon>
<polygon fill-rule="evenodd" clip-rule="evenodd" points="271.547,74.607 271.609,74.691 271.547,74.691 271.547,74.607 "></polygon>
<path fill-rule="evenodd" clip-rule="evenodd" d="M294.636,29.938L294.636,29.938c-12.213,0-22.222,9.463-23.089,21.454v3.385
	c0.867,11.992,10.876,21.457,23.089,21.457l0,0c12.78,0,23.148-10.365,23.148-23.148C317.784,40.305,307.416,29.939,294.636,29.938z
	 M294.636,65.064L294.636,65.064c-6.615,0-11.979-5.363-11.979-11.979c0-6.614,5.364-11.978,11.979-11.978l0,0
	c6.612,0,11.977,5.364,11.977,11.978C306.612,59.701,301.248,65.064,294.636,65.064z"></path>
<polygon fill-rule="evenodd" clip-rule="evenodd" points="231.484,74.691 231.484,31.48 243.83,31.48 243.83,49.119 257.121,31.48
	271.547,31.48 271.547,31.555 254.852,51.953 271.547,74.607 271.547,74.691 256.174,74.691 243.83,55.731 243.83,74.691
	231.484,74.691 "></polygon>
<path fill-rule="evenodd" clip-rule="evenodd" d="M271.547,51.393c-0.042,0.561-0.059,1.125-0.059,1.693
	c0,0.569,0.017,1.133,0.059,1.691V51.393z"></path>
<path fill-rule="evenodd" clip-rule="evenodd" fill="#FFFFFF" d="M464.511,26.851L464.511,26.851
	c-12.783,0-23.148,10.368-23.148,23.148c0,12.784,10.365,23.147,23.148,23.147l0,0c12.783,0,23.147-10.363,23.147-23.147
	C487.658,37.219,477.294,26.851,464.511,26.851z M464.511,61.979L464.511,61.979c-6.613,0-11.979-5.363-11.979-11.979
	c0-6.613,5.366-11.976,11.979-11.976l0,0c6.612,0,11.979,5.363,11.979,11.976C476.49,56.615,471.123,61.979,464.511,61.979z"></path>
<path fill-rule="evenodd" clip-rule="evenodd" fill="#FFFFFF" d="M326.732,28.396h34.383v43.209h-12.359V38.989h-9.662v16.472
	c0,0.925-0.033,1.934-0.097,3.029c-0.063,1.092-0.223,2.205-0.474,3.34c-0.546,2.607-1.899,4.973-4.065,7.096
	c-2.168,2.123-5.958,3.184-11.384,3.184c-0.672,0-1.271-0.012-1.796-0.031c-0.525-0.021-1.041-0.074-1.545-0.158
	c-0.293-0.041-0.589-0.096-0.881-0.158c-0.296-0.063-0.612-0.117-0.946-0.156V61.012c0.462,0.125,0.922,0.23,1.385,0.314
	c0.463,0.086,0.905,0.127,1.326,0.127c2.94,0,4.695-0.936,5.266-2.807c0.567-1.871,0.85-4.15,0.85-6.841V28.396L326.732,28.396z"></path>
<polygon fill-rule="evenodd" clip-rule="evenodd" fill="#FFFFFF" points="368.831,71.605 368.831,28.396 396.608,28.396
	396.608,38.989 381.189,38.989 381.189,44.704 395.286,44.704 395.286,54.414 381.189,54.414 381.189,61.477 396.608,61.477
	396.608,71.605 368.831,71.605 "></polygon>
<path fill-rule="evenodd" clip-rule="evenodd" fill="#FFFFFF" d="M436.733,69.953c-0.869,0.586-1.74,1.066-2.607,1.439
	c-0.869,0.379-1.739,0.689-2.606,0.941c-1.117,0.336-2.225,0.555-3.32,0.658c-1.096,0.105-2.161,0.154-3.194,0.154
	c-6.126,0-11.36-2.023-15.707-6.074c-4.345-4.051-6.516-9.731-6.516-17.04c0-7.645,2.276-13.417,6.829-17.324
	c4.549-3.905,9.619-5.857,15.205-5.857c0.741,0,1.511,0.042,2.297,0.125c0.783,0.084,1.591,0.209,2.419,0.376
	c1.243,0.252,2.475,0.626,3.692,1.127c1.223,0.501,2.392,1.128,3.509,1.88v12.719c-0.247-0.294-0.529-0.607-0.839-0.941
	c-0.31-0.334-0.672-0.667-1.085-1.001c-0.951-0.835-2.124-1.598-3.509-2.287c-1.386-0.691-3.007-1.035-4.869-1.035
	c-3.519,0-6.251,1.244-8.196,3.728c-1.942,2.487-2.917,5.441-2.917,8.866c0,3.801,1.097,6.724,3.289,8.771
	c2.196,2.046,4.804,3.069,7.824,3.069c2.23,0,4.218-0.502,5.955-1.502c1.739-1.006,3.188-2.09,4.347-3.26V69.953z"></path>
<polygon fill-rule="evenodd" clip-rule="evenodd" fill="#C3C9CC" points="268.46,28.396 268.519,28.396 268.46,28.468
	268.46,28.396 "></polygon>
<polygon fill-rule="evenodd" clip-rule="evenodd" fill="#C3C9CC" points="268.46,71.521 268.522,71.605 268.46,71.605
	268.46,71.521 "></polygon>
<path fill-rule="evenodd" clip-rule="evenodd" fill="#FFFFFF" d="M291.549,26.851c-12.213,0-22.219,9.463-23.089,21.453v3.393
	c0.87,11.99,10.876,21.449,23.089,21.449c12.78,0,23.145-10.363,23.145-23.147C314.693,37.219,304.329,26.851,291.549,26.851z
	 M291.549,61.979L291.549,61.979c-6.616,0-11.979-5.363-11.979-11.979c0-6.613,5.363-11.976,11.979-11.976l0,0
	c6.612,0,11.977,5.363,11.977,11.976C303.525,56.615,298.161,61.979,291.549,61.979z"></path>
<polygon fill-rule="evenodd" clip-rule="evenodd" fill="#FFFFFF" points="228.397,71.605 228.397,28.396 240.741,28.396
	240.741,46.033 254.034,28.396 268.46,28.396 268.46,28.468 251.765,48.866 268.46,71.521 268.46,71.605 253.091,71.605
	240.741,52.646 240.741,71.605 228.397,71.605 "></polygon>
<path fill-rule="evenodd" clip-rule="evenodd" fill="#C3C9CC" d="M268.46,48.304c-0.041,0.56-0.063,1.125-0.063,1.695
	c0,0.573,0.022,1.137,0.063,1.698V48.304z"></path>
<polygon fill-rule="evenodd" clip-rule="evenodd" fill="#FFFFFF" points="78.023,60.92 75.062,40.44 71.466,25.619 80.592,26.157
	82.022,23.652 84.886,26.872 86.499,29.021 87.57,32.241 88.106,34.746 90.434,36.536 90.612,39.22 91.148,42.798 92.224,49.954
	92.046,52.818 91.573,56.257 90.076,60.154 88.823,65.521 86.853,69.279 83.992,72.5 81.667,75.006 76.833,76.795 72.719,76.975
	70.753,78.225 67.711,77.867 "></polygon>
<path fill-rule="evenodd" clip-rule="evenodd" d="M33.088,52.133c-1.041,0.225-2.447,0.59-3.884,0.414
	c-1.438-0.178-1.462,1.442-2.356,1.441c-0.892,0-1.18,0.976-1.504,1.336c-0.327,0.359-0.703,0.434-0.72,1.08
	c-0.021,0.649-0.446,0.465-0.871,0.869c-0.424,0.402-0.059,1.714-1.037,1.991c-0.978,0.276-1.741,0.378-2.523,0.485
	c-0.78,0.107-1.253,0.727-1.406,1.229s-0.581,0.506-0.759,0.898c-0.181,0.391-0.045,1.227-0.247,1.814
	c-0.198,0.588-0.73,0.709-1.211,1.068c-0.48,0.361-1.336,0.898-1.5,1.264c-0.16,0.367-0.09,0.779-0.098,1.207
	c-0.007,0.424-0.094,0.998-0.295,1.559c-0.202,0.561-0.582,0.881-1.793,0.734c-1.211-0.148-2.217,0.742-2.112,2.084
	c0.104,1.342,0.571,2.031,1.503,2.465c0.933,0.441,0.678,1.266,0.17,1.326c-0.512,0.063-0.167,0.082-1.399,0.012
	c-1.232-0.066-1.079,0.479-1.396,0.455c-0.32-0.021-0.557-0.309-0.77-0.887C8.67,74.4,7.493,74.332,7.034,74.621
	c-0.459,0.293,0.627,0.66,0.292,1.213c-0.334,0.551-1.695,0.174-1.935,0.525c-0.236,0.352-0.035,0.77,0.484,1.008
	c0.515,0.236,1.277,0.564,1.698,0.227c0.425-0.334,1.152-0.184,1.559-0.477c0.411-0.293,0.964-0.373,0.954,0.291
	c-0.014,0.67-0.807,0.822-1.218,1.029c-0.41,0.209-0.877,0.063-1.315,0.166c-0.436,0.102-1.072,0.426-0.773,1.01
	c0.303,0.586,1.041,0.422,1.594,0.25c0.557-0.174,1.069-0.719,1.653-1.178c0.585-0.461,0.773-0.057,0.995,0.049
	c0.227,0.107,0.624-0.309,1.131-0.406c0.505-0.1,1.643-0.859,1.995-0.131c0.351,0.732,0.62,1.068,1.232,1.467
	c0.616,0.396,1.469,0.664,2.053,1.004c0.582,0.342,1.038-0.074,1.58-0.098c0.54-0.02,0.884,0.219,1.427,0.195
	c0.543-0.025,0.856,0.01,1.302-0.057c0.442-0.061,1.253-0.08,1.737-0.24c0.484-0.166,0.257-0.461,1.012-0.602
	c0.756-0.141,1.531-0.27,2.162-0.178c0.633,0.09,1.295,0.299,1.82,0.445c0.529,0.15,1.072,0.338,1.587,0.365
	c0.519,0.023,1.462,0.037,1.848-0.346c0.39-0.385,0.334-0.406,0.713-0.674c0.383-0.268,0.216-0.863,0.633-0.979
	c0.418-0.115,1.065-0.02,1.664-0.068c0.599-0.047,1.482-0.713,1.619,0.613c0.139,1.324,1.204,1.689,2.004,1.848
	c0.797,0.162,0.964,0.801,0.303,1.158c-0.661,0.355-1.531,0.137-2.245,1.121c-0.717,0.984,0.229,1.848,0.961,1.209
	c0.734-0.639,1.159-0.373,1.392,0.303c0.229,0.682,0.832,0.604,1.148,0.598c0.317-0.006,0.15,0.33,0.637,0.41
	c0.487,0.08,1.786,0.109,2.245-0.002c0.459-0.109,0.202-0.326,0.08-0.553c-0.125-0.225-0.484-0.469-0.745-0.537
	c-0.265-0.068-0.369,0.209-0.693,0.164s-0.891-0.094-1.044-0.438c-0.153-0.346,0.149-0.668,0.508-0.764
	c0.359-0.094,0.759,0.334,1.173,0.453c0.414,0.123,1.023,0.176,1.318,0.268c0.292,0.088,0.167,0.066,0.491,0.252
	c0.324,0.184,1.114,0.17,1.246-0.383c0.129-0.551-1.068-0.188-0.929-0.717s0.696-0.709,1.298-0.746
	c0.602-0.039,1.799,0.168,2.248,0.029c0.449-0.141,0.16-0.787-0.157-0.984c-0.317-0.195-0.842,0.072-1.427,0.104
	c-0.588,0.027-1.403,0.271-1.911,0.34c-0.505,0.068-0.627,0.402-0.982,0.066c-0.354-0.334-1.36-0.111-1.343-0.76
	c0.021-0.648,1.263-1.176,1.406-1.979c0.143-0.803,0.313-0.865,0.261-1.254c-0.052-0.391,0.352-0.725-0.153-0.945
	c-0.505-0.219-1.243,0.477-1.535,0.156c-0.296-0.324-0.348-0.592-0.243-0.887c0.104-0.295,0.396-0.527,0.926-0.615
	c0.529-0.088,1.259,0.115,2.687-0.115c1.427-0.229,3.787-1.236,4.97-2.137c1.18-0.898,1.402-0.352,2.21-0.135
	c0.811,0.219,2.186,0.873,3.003,0.059c0.818-0.814,1.055-0.723,1.396-0.697c0.337,0.023,0.352,0.496,0.22,0.813
	c-0.136,0.316-0.926,0.336-1.211,0.572c-0.286,0.232-0.626,0.338-0.48,0.814c0.146,0.473,0.25,1.213-0.616,1.232
	c-0.863,0.014-0.984-0.082-1.343-0.232c-0.355-0.148-0.445-0.113-0.658-0.646c-0.209-0.533-0.992-0.75-1.065-0.254
	c-0.077,0.496-0.564,0.629-0.829,0.67c-0.268,0.037-0.772-0.188-0.954,0.094c-0.181,0.283,0.042,0.895-0.007,1.494
	s0.658,0.232,0.853,0.303c0.195,0.068,0.55,0.264,0.776,0.248c0.223-0.016,0.219-0.186,0.418-0.256
	c0.198-0.07,0.205-0.252,0.445-0.297c0.244-0.045,0.581-0.137,0.811,0.018c0.226,0.152,0.146,0.395,0.038,0.59
	c-0.107,0.193-0.271,0.313-0.595,0.365c-0.327,0.055-1.02-0.281-1.173,0.139c-0.149,0.42,0.327,0.719,0.8,0.824
	c0.474,0.105,1.323-0.248,1.667-0.514c0.344-0.27,0.223-0.719,0.912-0.893c0.689-0.172,1.782-0.076,2.823-0.057
	c1.041,0.018,3.278,0.512,3.981,0.115c0.703-0.402,0.299-1.457,0.014-2.053c-0.282-0.594-1.183-0.09-1.695-0.539
	c-0.511-0.453-0.25-1.123,0.383-1.303c0.634-0.182,1.159,0.506,1.483,0.621c0.32,0.121,0.352-0.154,0.546,0.027
	c0.199,0.18,0.077,0.486,0.561,0.934c0.483,0.445,1.9,1.68,2.429,1.654c0.533-0.025,0.751,0.443,1.263,0.389
	c0.516-0.057,1.205,0.063,1.622-0.508c0.418-0.57,1.218-0.547,1.782-1.027c0.561-0.475,2.262-0.037,1.935-1.234
	s0.098-1.52,0.157-2.041c0.059-0.523,0.08-1.004,0.578-1.176c0.491-0.17,0.153-0.725,0.498-1.059
	c0.341-0.334,0.665-0.586,1.225-0.922c0.557-0.338,0.818-0.637,1.107,0.102c0.289,0.738,0.229,2.613,0.905,3.146
	c0.675,0.535,1.754,0.389,1.98,0.27c0.226-0.123,0.359-0.742,0.327-1.18c-0.035-0.438-0.174-1.629-0.25-2.264
	c-0.077-0.631-0.216-1.01-0.421-1.453c-0.202-0.445-0.936-1.012-1.097-1.557c-0.156-0.549-0.122-1.053-0.153-1.893
	c-0.034-0.842,0.191-2.09,0.985-1.26c0.79,0.832,1.542,4.65,2.871,5.598c1.326,0.947,2.906,0.26,3.115-1.113
	c0.208-1.375-2.029-4.029-2.645-5.563c-0.613-1.529-1.006-1.057-1.42-1.852c-0.411-0.797-0.641-1.635-0.867-2.363
	c-0.227-0.727-0.185-0.69-0.108-1.617c0.077-0.927,1.003-1.17,1.059-0.157c0.059,1.013,0.713,1.028,0.908,1.407
	c0.191,0.377,0.01,0.5,0.254,0.814c0.24,0.316,0.786,0.584,1.148,1.021c0.358,0.439,0.185,0.686,0.996,1.582
	c0.808,0.896,2.527,0.391,2.729-0.697c0.206-1.088,0.087-1.277-0.198-1.923c-0.282-0.646-1.302-0.616-1.845-1.665
	c-0.539-1.049-0.257-0.725-1.121-1.123c-0.867-0.396-2.151-2.777-2.729-3.719c-0.581-0.943-0.101-0.604-0.741-1.917
	c-0.637-1.314,0.512-2.201,0.958-1.105c0.445,1.095,0.779,0.822,1.169,1.063c0.394,0.242,0.282,0.903,0.745,1.294
	c0.463,0.388,1.1,0.848,1.413,1.376c0.317,0.526,0.379,0.584,0.968,1.131c0.584,0.545,1.427,1.912,1.789-0.162
	c0.362-2.07,0.056-2.421-0.741-3.665c-0.797-1.245-2.99-3.077-3.825-3.834c-0.832-0.757-0.72-0.515-1.044-0.792
	c-0.33-0.277-0.581-0.527-0.918-0.867c-0.341-0.341-0.804-0.809-1.124-1.173c-0.317-0.362-0.581-0.633-0.79-0.994
	c-0.205-0.362-0.31-0.801-0.432-1.149c-0.125-0.35-0.108-0.17-0.306-0.944c-0.202-0.773-0.063-1.182,0.536-0.816
	c0.592,0.367,0.707,0.164,1.121,0.433c0.414,0.273,0.835,0.74,1.326,1.175c0.487,0.433,1.222,1.105,1.608,1.429
	c0.386,0.322,0.268,0.022,0.713,0.51c0.445,0.487,1.145,1.577,1.938,2.396c0.794,0.821,1.448,0.633,1.657-0.586
	c0.213-1.218,0.258-1.632-0.177-2.243c-0.438-0.614-1.347-1.549-1.862-2.17c-0.516-0.618-1.086-0.56-1.43-1.096
	c-0.341-0.535-0.561-1.13-1.556-1.3c-1.002-0.169-0.828-0.686-1.134-0.964c-0.31-0.281-1.431,0.028-2.21-0.705
	c-0.783-0.731-0.54-0.677-1.698-1.284c-1.159-0.605-0.93-1.855-0.091-1.98c0.835-0.125,1.483,0.385,1.97,0.688
	c0.487,0.301,0.693,0.635,1.326,0.513c0.633-0.122,0.567,0.313,1.152,0.647c0.581,0.333,1.503,1.792,2.109,2.026
	c0.606,0.235,1.455,0.103,1.469-0.742c0.014-0.844-0.074-1.754-0.387-2.29c-0.313-0.532-0.748-0.503-1.382-1.011
	c-0.633-0.507-1.604-1.374-2.583-1.94c-0.981-0.564-2.321-1.018-3.149-1.317c-0.829-0.299-1.065-0.252-1.699-0.491
	c-0.633-0.24-0.943-0.129-1.781-1.356c-0.842-1.225-0.37-1.554,0.636-1.174c1.009,0.377,1.354,0.393,2.008,0.442
	c0.655,0.05,0.985,0.236,1.831,0.751c0.846,0.515,1.187,0.284,1.577,0.504c0.394,0.223,0.46,0.48,0.794,0.594
	c0.337,0.111,1.402,0.092,1.688-0.282c0.292-0.374,0.237-1.477,0.254-2.293c0.021-0.818-0.115-1.674,0.24-2.126
	c0.355-0.453,0.968-0.23,1.243,0.939s0.101,4.958,0.317,6.366c0.216,1.408,0.641,1.442,0.947,1.773
	c0.306,0.334,0.522,0.579,0.783,0.085c0.258-0.49,0.512-2.003,0.341-2.834c-0.17-0.832,0.547-2.014,0.867-1.093
	c0.323,0.922,0.626,2.501,0.456,3.757c-0.174,1.254-0.696,2.22-0.728,2.94c-0.031,0.719-0.24,0.748-0.299,1.119
	c-0.06,0.371-0.428,0.425-0.206,2.278c0.226,1.852,1.88,1.65,2.224,0.407c0.345-1.242,0.299-1.236,0.449-1.625
	c0.153-0.396,0.052-0.302,0.101-1.156c0.049-0.856,0.665-0.957,0.926,0.2c0.261,1.155,0.181,1.667,0.139,2.584
	c-0.045,0.915-0.39,1.966-0.561,2.801c-0.167,0.832-0.327,1.613-0.528,2.186c-0.199,0.573-0.37,0.778-0.787,1.188
	c-0.418,0.411-0.592,0.34-0.787,1.338c-0.199,0.999,0.226,2.335,1.514,1.917c1.288-0.414,1.225-1.035,1.521-1.545
	c0.296-0.509,0.181-1.061,0.303-1.484c0.118-0.423,0.17-0.512,0.432-1.237c0.264-0.728,0.793-0.774,0.883,0.198
	c0.091,0.971,0.129,0.814,0.083,1.188c-0.048,0.373-0.202,0.552-0.278,1.077c-0.077,0.526-0.181,1.486-0.317,2.042
	c-0.132,0.555-0.477,0.28-0.71,1.122c-0.233,0.843-1.472,2.76-2.071,3.646c-0.599,0.887-0.435,0.314-1.35,1.668
	c-0.916,1.352,0.188,3.113,1.03,2.559c0.846-0.555,0.654-0.721,1.068-0.959c0.418-0.234,0.842-0.354,1.023-0.873
	c0.184-0.518,0.087-0.795,0.351-1.043c0.265-0.246,0.369-0.703,0.755-0.592c0.386,0.111,0.512,0.594,0.338,0.728
	c-0.178,0.136,0.202,0.282-0.122,0.739c-0.32,0.46-1.134,1.934-1.465,2.326c-0.334,0.393-1.034,0.666-1.294,1.355
	c-0.265,0.688-0.668,1.096-1.305,1.271c-0.634,0.176-1.106,0.939-1.497,1.303c-0.394,0.363-0.961,0.078-0.88,0.705
	c0.08,0.631-0.313,0.754-0.237,1.162c0.073,0.41-0.216,1.773,0.582,1.65c0.797-0.123,1.903-1.891,2.439-2.48
	c0.54-0.588,1.177-0.225,0.964,0.666c-0.212,0.893-1.497,2.285-2.505,3.061c-1.013,0.773-0.143,0.859,0.048,0.994
	c0.191,0.133,0.407,0.625,0.115,1.01c-0.292,0.383-0.637,0.604-1.618,0.643c-0.978,0.039-3.237-0.215-3.905,0.648
	c-0.671,0.865-0.853,1.521-0.073,1.553c0.779,0.033,0.939,0.588,0.877,1.092c-0.066,0.504-0.237,0.842-0.749,0.848
	c-0.508,0.008-0.793,0.295-1.396,0.396c-0.605,0.102-1.177,0.619-1.727,0.504c-0.553-0.115-0.932-0.59-1.037-0.998
	c-0.104-0.41-0.202-0.74-0.709-0.883c-0.508-0.141-0.856-1.039-1.173-1.201c-0.317-0.16-0.902,0.223-1.253,0.461
	s-0.365,0.801-0.247,1.184c0.119,0.381,0.247,0.498,0.515,0.686c0.268,0.189,0.438,0.443,0.379,0.871
	c-0.056,0.426-0.174,0.813-0.79,1.023c-0.616,0.213-1.935-0.15-2.753,0.367c-0.817,0.52-0.947,1.627,0.167,1.713
	c1.11,0.088,2.461-0.084,3.404-0.35c0.946-0.264,1.903-0.553,2.457-0.664s1.205,0.096,1.619,0.004
	c0.417-0.092,0.574-0.34,0.947-0.531c0.369-0.193,0.494-0.473,1.204-0.709c0.71-0.232,1.003-1.033,1.901-1.57
	c0.901-0.539,1.866-1.879,2.589-2.459c0.724-0.582,1.085-0.49,1.601-1.012c0.519-0.521,0.925-0.928,1.277-1.484
	c0.352-0.555,0.327-1.268,0.832-1.875c0.501-0.604,0.202-2.096,0.87-2.408c0.675-0.316,0.358-0.338,0.79-1.16
	c0.428-0.816,1.104-2.15,0.968-3.072c-0.14-0.922,0.083-0.924,0.765-1.488c0.679-0.563,0.884-2.466,0.54-3.636
	c-0.345-1.169-0.295-1.427-0.264-1.949c0.028-0.522,0.483-0.364,0.515-1.049c0.024-0.685,0.024-0.698,0.327-1.479
	c0.303-0.781,0.286-2.031-0.08-3.076c-0.365-1.044-0.135-1.937-0.146-2.973c-0.014-1.037,0.004-4.016-0.379-4.966
	c-0.553-1.366-1.176-1.873-1.476-3.115c-0.303-1.241-0.073-1.921-0.651-2.984c-0.578-1.063-0.936-0.416-1.556-1.008
	c-0.616-0.59,0.24-1.622-0.498-2.739c-0.345-0.524-0.24-1.705-0.856-2.469c-0.703-0.865-1.841-0.901-1.914-1.747
	c-0.115-1.292-1.131-0.921-1.302-2.518c-0.086-0.806-0.957-0.565-1.685-1.537c-0.306-0.413-1.229,0.077-1.89-0.966
	c-0.438-0.69-1.42-1.02-1.657-1.106c-0.727-0.277-1.058,0.042-1.932-0.166c-0.873-0.205-1.205-0.865-1.747-0.977
	c-0.539-0.111-0.877-0.484-1.381-0.544c-0.505-0.06-0.933,0.217-1.414,0.404c-0.477,0.183-1.538,0.484-2.099,0.772
	c-0.56,0.287-0.981,0.887-1.427,1.112c-0.446,0.227-0.483,0.208-1.124,0.724c-0.637,0.519-0.721,1.457-1.323,2.147
	c-0.605,0.691-0.821,0.412-0.974,1.049c-0.153,0.637,0.028,1.036-0.585,2.015c-0.616,0.983-0.916,1.45-1.155,1.916
	c-0.24,0.466-0.042,0.995-0.174,1.38c-0.132,0.383-0.352,0.656-0.466,1.062c-0.118,0.405,0.003,1.552-0.045,2.245
	c-0.048,0.694-0.557,1.039-0.696,1.585c-0.143,0.545-0.06,1.563-0.122,2.221c-0.063,0.658-0.348,0.767-0.282,1.662
	c0.066,0.896-0.425,0.573-0.348,1.38c0.073,0.81,0.376,1.279,0.341,1.742c-0.039,0.465,0.146,1.06-0.286,1.204
	c-0.435,0.143-1.803,0.291-2.074,0.421c-0.275,0.129-1.821,0.834-2.182,1.224c-0.362,0.392-0.296,0.254-0.553,0.479
	c-0.258,0.221-0.742,0.613-0.999,0.856c-0.254,0.243-0.24,0.191-0.508,0.705c-0.268,0.512-0.139,1.041,0.438,0.404
	c0.575-0.637,0.463-0.47,1.072-0.724c0.605-0.252,1.506-0.783,2.063-1.026c0.561-0.244,0.522-0.315,1.26-0.482
	c0.738-0.166,1.615-0.268,1.576,1.052c-0.042,1.322,0.004,1.098,0.014,1.61c0.014,0.509-0.056,0.854,0.021,1.301
	c0.08,0.445,0.351,1.002,0.348,1.539c-0.004,0.536,0.407,0.585,0.595,1.018c0.191,0.437,0.421,0.771,0.546,1.255
	c0.125,0.482-0.167,0.82-0.056,1.269c0.119,0.447,0.637,0.993,0.683,1.681c0.048,0.688,0.278,1.266,0.717,1.606
	c0.435,0.343,0.491,0.336,0.8,0.893c0.31,0.556,0.529,1.78,1.055,2.446c0.522,0.67,1.229,1.289,1.674,1.689
	c0.449,0.4,0.797,0.785,1.177,0.803c0.376,0.016,0.508,0.41,0.964,0.479c0.453,0.066,1.246-0.006,1.803-0.248
	c0.561-0.234,1.462-0.656,1.688-1.271c0.229-0.617,0.382-0.668,0.769-0.916c0.387-0.246,0.738-0.303,0.87,0.188
	c0.129,0.492,0.087,1.033-0.39,1.547c-0.477,0.516-0.981,1.412-1.576,1.553c-0.603,0.139-0.564,0.742-0.996,0.965
	c-0.428,0.223-1.107,0.197-1.591,0.236c-0.484,0.043-0.772,0.104-1.187-0.018c-0.411-0.125-0.849-0.055-1.138-0.762
	c-0.292-0.703-0.947-0.953-1.229-1.258c-0.278-0.305-0.181-0.48-0.561-0.42c-0.379,0.063-0.226-0.682-0.494-0.969
	c-0.268-0.285-0.414-0.551-0.689-0.887c-0.275-0.334-0.759-0.234-0.919-0.824c-0.16-0.588-0.501-0.789-0.821-1.055
	c-0.327-0.262-0.275-0.668-0.895-0.598c-0.619,0.068-1.023-0.188-1.152-0.628c-0.125-0.438-0.184-0.915-0.404-1.226
	c-0.222-0.308-0.706-0.473-0.995-0.68c-0.289-0.205-0.547-0.09-0.933-0.273c-0.39-0.187-1.02-0.244-1.288-1.076
	c-0.268-0.833-0.72-0.398-1.173-0.641c-0.452-0.243-1.058-0.304-1.534-0.5c-0.478-0.197-0.773-0.305-1.201-0.531
	c-0.428-0.227-0.881-0.71-1.365-0.828c-0.483-0.117-0.888-0.33-1.393-0.354c-0.504-0.024-0.769-0.103-1.434,0.213
	c-0.661,0.314-1.322-0.094-1.636-0.656c-0.316-0.564-0.916-0.362-1.403-0.48c-0.487-0.12-1.068-0.26-1.552-0.295
	c-0.48-0.034-0.605,0.253-1.149,0.299c-0.54,0.045-1.263,0.262-1.736,0.146c-0.474-0.115-0.111-0.7-0.647-0.826
	c-0.536-0.127-2.52,0.26-3.331,0.117c-0.811-0.141-1.11,0.036-1.619,0.473c-0.511,0.44-1.141,0.213-1.681,0.207
	c-0.54-0.004-1.044-0.261-1.472-0.236C33.687,51.772,34.128,51.904,33.088,52.133z"></path>
<path fill-rule="evenodd" clip-rule="evenodd" fill="#FFFFFF" d="M56.556,61.018c-0.31-1.283-1.824-0.961-1.886,0.41
	c-0.059,1.375-0.327,1.707-1.608,1.834c-1.285,0.125-4.556,0.27-6.087,0.377c-1.528,0.109-2.126,0.01-3.208,0.211
	c-1.083,0.199-2.698,0.412-3.195,0.152c-0.501-0.264-0.999-0.33-1.942-0.234s-2.116,0.1-2.844,0.02
	c-0.727-0.084-0.87-0.086-1.437-0.594c-0.568-0.51-0.808,0.121-0.613,0.781c0.202,0.664,0.327,1.102-0.849,0.846
	c-1.177-0.258-1.727-0.389-2.478-0.475c-0.752-0.082-0.338-1.156-0.157-1.48s0.438-0.955,0.978,0.008
	c0.533,0.965,2.005,0.473,1.75-0.643c-0.254-1.117-0.637-1.713-1.173-1.986c-0.532-0.275-0.647,0.709-1.25,0.838
	c-0.599,0.127-1.246,0.221-1.176,1.191c0.066,0.973-0.39,1.152-1.016,0.674c-0.623-0.48-1.142,0.053-1.556,0.82
	c-0.414,0.766-1.351,0.668-1.051-0.354c0.295-1.023,1.761-1.332,1.573-1.973c-0.188-0.643-1.692-0.258-2.192-0.176
	c-0.501,0.08-1.114,0.096-1.518,0.244c-0.407,0.146-0.407,0.256-0.845,0.615c-0.442,0.357-1.455-0.029-0.487-0.549
	c0.967-0.523,2.732-1.305,3.741-1.633c1.009-0.33,1.326-0.502,1.625-0.807c0.303-0.303,0.261-0.379,0.846-0.424
	c0.588-0.044,1.271-0.1,2.579,0.17c1.308,0.27,1.991-0.447,0.717-0.932s-1.688-0.146-2.005-0.065
	c-0.32,0.082-0.929-0.056-1.862,0.235s-0.981-0.889-0.083-0.785c0.898,0.104,0.682-0.34,0.483-0.721
	c-0.191-0.379-0.901-0.734-1.329-0.848c-0.425-0.111-0.734-0.067-0.992,0.129c-0.261,0.193-0.334,0.541-0.358,0.867
	c-0.028,0.328-0.194,0.492-0.466,0.869c-0.271,0.375-0.435,0.152-0.675,0.848c-0.243,0.694-0.727,1.621-1.841,2.033
	c-1.11,0.41-2.652,1.053-2.725,2.098c-0.074,1.047-0.269,1.842-1.058,2.109c-0.783,0.266-1.378,0.859-1.796,1.344
	c-0.414,0.484-0.595,0.541-0.633,1.48c-0.035,0.945-0.149,2.486,0.424,4.029c0.571,1.539,0.773,1.984-0.212,1.758
	c-0.988-0.23-1.364-0.23-1.354,0.656c0.014,0.885,0.254,1.609,0.129,2.244c-0.129,0.637-0.323,1.848,0.769,1.586
	c1.097-0.258,0.916,0.33,1.469,1.229c0.554,0.898,2.659,0.824,3.668,0.139c1.013-0.684,1.674-1.064,2.548-1.002
	c0.88,0.063,1.253,0.096,2.025,0.199c0.773,0.105,2.133,0.313,2.917,0.365s1.093,0.615,1.771-0.053
	c0.675-0.668,1.19-2.729,1.699-3.459c0.508-0.729,0.195-1.014,0.584-1.25c0.39-0.234,0.874-0.031,1.518,0.021
	c0.64,0.055,1.368-0.305,1.598-0.432c0.226-0.125,0.981,0.09,1.479-0.088c0.494-0.178,0.703-0.264,1.155-0.83
	c0.449-0.564,0.529-0.73,1.427-0.691c0.898,0.045,2.085-0.662,3.334-1.299c1.246-0.637,4.994-1.051,7.212-1.707
	c2.22-0.656,4.385-1.107,5.276-0.484c0.898,0.623,0.752,0.023,1.584-0.455c0.832-0.48,2.258-0.963,1.493-1.598
	c-0.762-0.639-3.101,0.369-4.535,0.422c-1.431,0.055-2.443,0.5-3.571,0.76c-1.128,0.26-2.409,0.787-3.488,0.781
	c-1.079-0.01-1.671,0.436-2.36,0.609c-0.686,0.174-1.545,0.061-2.404,0.68c-0.86,0.617-1.57,1.1-2.371,0.896
	c-0.801-0.203-1.117-0.15-1.514-0.031c-0.397,0.119-0.501,0.373-1.187,0.59s-1.653,1.066-3.035,1.049
	c-1.386-0.016-1.044-0.662-1.493-1.381c-0.456-0.721-3.202-0.588-4.316-0.291c-1.117,0.293-1.9-0.387-1.942-1.031
	c-0.039-0.639,0.337-1.115,1.1-1.145c0.766-0.029,1.719,0.305,2.593,0.836c0.874,0.531,2.287,0.063,3.185-0.143
	c0.895-0.209,1.688-0.031,2.471-0.148c0.78-0.117,0.71-0.387,1.431-0.543c0.724-0.156,1.437-0.014,1.991-0.109
	c0.557-0.096,0.605-0.809,1.722-0.486c1.118,0.324,1.515-0.289,2.016-0.498c0.498-0.211,0.641-0.361,0.989-0.492
	c0.348-0.129,0.703-0.402,1.476-0.246c0.772,0.156,2.109,0.16,2.593-0.34c0.487-0.498,0.741-0.344,1.281-0.547
	c0.543-0.197,1.013-0.568,1.859-0.83c0.845-0.262,1.938-0.313,2.788-0.461c0.853-0.148,1.639-0.182,2.293-0.314
	c0.651-0.127,1.274-0.211,1.57-0.285c0.292-0.076,0.775,0.02,0.838-0.752c0.063-0.771-0.689-2.217-1.079-1.088
	C57.479,63.014,56.866,62.301,56.556,61.018z"></path>
<path fill-rule="evenodd" clip-rule="evenodd" fill="#FFFFFF" d="M73.374,22.602c-1.333,0.001-1.358,0.722-0.39,1.047
	c0.967,0.328,1.789,0.374,2.461,0.563c0.671,0.188,1.047,0.202,1.559,0.586c0.508,0.383,1.256,0.442,1.486,0.146
	c0.227-0.297,1.038-0.08,0.971-0.586c-0.063-0.506,0.223-0.705-0.17-1.563c-0.39-0.856-0.797-0.762-0.825-0.024
	c-0.031,0.738,0.16,1.724-0.808,1.123C76.694,23.291,74.707,22.596,73.374,22.602z"></path>
<path fill-rule="evenodd" clip-rule="evenodd" fill="#C3C9CC" d="M69.497,37.294c0.331-1.041,2.168-0.461,2.541,0.443
	c0.372,0.905,0.703,1.004,0.689,1.568c-0.014,0.565,0.417,0.861,0.57,1.38c0.153,0.519,0.411,1.034,0.411,1.699
	c-0.003,0.665,0.439,1.239,0.592,1.75c0.153,0.513,0.209,0.233,0.258,1.41c0.045,1.176-0.324,1.735-1.281,0.72
	c-0.954-1.016-1.778-1.058-2.447-1.349c-0.668-0.289-1.097-0.27-1.531-0.375c-0.436-0.108-0.717-0.157-1.076-0.27
	s-0.752-0.336-1.075-0.404c-0.324-0.07-0.522,0.054-0.832,0c-0.313-0.056-0.149-0.25-1.023-0.324
	c-0.874-0.073-0.908-0.278-0.08-0.459c0.828-0.177,1.524-0.191,2.23-0.214c0.703-0.024,1.382,0.05,1.615-1.079
	c0.23-1.13-0.191-1.854-0.042-2.583C69.166,38.478,69.166,38.334,69.497,37.294z"></path>
<path fill-rule="evenodd" clip-rule="evenodd" fill="#C3C9CC" d="M69.113,47.946c0.55,0.53,1.006,0.806,1.378,1.201
	c0.369,0.393,0.553,0.667,0.832,1.148c0.278,0.479,0.599,1.168,0.835,1.721c0.233,0.554,0.4,1.135,0.57,1.593
	c0.171,0.456,0.307,0.485,0.442,1.146c0.135,0.663-0.14,1.671-0.599,1.88c-0.456,0.211-0.435-0.091-0.703-0.183
	c-0.265-0.091-0.533,0.097-0.884-0.368c-0.352-0.461-0.637-1.654-0.937-2.293c-0.299-0.641-0.672-1.035-0.859-1.54
	c-0.188-0.505-0.352-0.962-0.442-1.462c-0.091-0.499-0.032-1.091-0.105-1.514c-0.073-0.419-0.226-0.079-0.337-0.991
	C68.195,47.371,68.563,47.413,69.113,47.946z"></path>
<rect x="104.94" y="65.434" fill-rule="evenodd" clip-rule="evenodd" fill="#FFFFFF" width="117.286" height="6.172"></rect>
<g>
	<rect x="104.938" y="61.105" fill-rule="evenodd" clip-rule="evenodd" width="117.29" height="10.498"></rect>
	<polygon fill-rule="evenodd" clip-rule="evenodd" fill="#FFF200" points="113.123,71.605 104.938,71.605 104.938,63.42 	"></polygon>
	<polygon fill-rule="evenodd" clip-rule="evenodd" fill="#FFF200" points="142.987,71.605 128.128,71.605 117.626,61.104
		132.485,61.104 	"></polygon>
	<polygon fill-rule="evenodd" clip-rule="evenodd" fill="#FFF200" points="172.835,71.605 157.977,71.605 147.49,61.104
		162.332,61.104 	"></polygon>
	<polygon fill-rule="evenodd" clip-rule="evenodd" fill="#FFF200" points="202.699,71.605 187.841,71.605 177.338,61.104
		192.195,61.104 	"></polygon>
	<polygon fill-rule="evenodd" clip-rule="evenodd" fill="#FFF200" points="222.228,61.27 222.228,71.604 217.708,71.604
		207.2,61.105 222.063,61.105 	"></polygon>
</g>
<g>
	<rect x="104.938" y="28.393" fill-rule="evenodd" clip-rule="evenodd" width="117.29" height="10.508"></rect>
	<polygon fill-rule="evenodd" clip-rule="evenodd" fill="#FFF200" points="113.123,38.898 104.938,38.898 104.938,30.714 	"></polygon>
	<polygon fill-rule="evenodd" clip-rule="evenodd" fill="#FFF200" points="142.987,38.898 128.128,38.898 117.626,28.396
		132.485,28.396 	"></polygon>
	<polygon fill-rule="evenodd" clip-rule="evenodd" fill="#FFF200" points="172.835,38.898 157.977,38.898 147.49,28.396
		162.332,28.396 	"></polygon>
	<polygon fill-rule="evenodd" clip-rule="evenodd" fill="#FFF200" points="202.699,38.898 187.841,38.898 177.338,28.396
		192.195,28.396 	"></polygon>
	<polygon fill-rule="evenodd" clip-rule="evenodd" fill="#FFF200" points="222.228,28.557 222.228,38.9 217.708,38.9 207.2,28.393
		222.063,28.393 	"></polygon>
</g>
</svg>
