<svg width="22" height="22" viewBox="0 0 22 22" fill="none" xmlns="http://www.w3.org/2000/svg">
<path d="M19.8085 14.9961L18.3476 14.1522C18.6119 13.8799 18.9151 13.6482 19.2473 13.4647C19.4645 13.3422 19.6245 13.139 19.6925 12.8991C19.7605 12.6593 19.731 12.4022 19.6105 12.184C19.4899 11.9658 19.288 11.8041 19.0487 11.734C18.8094 11.664 18.5522 11.6912 18.3329 11.81C17.6987 12.161 17.1366 12.629 16.6765 13.1893L12.8905 11L16.6756 8.81461C17.1356 9.37495 17.6977 9.84298 18.3321 10.1939C18.4408 10.2552 18.5606 10.2944 18.6846 10.3091C18.8085 10.3239 18.9341 10.314 19.0542 10.2799C19.1743 10.2459 19.2865 10.1884 19.3842 10.1107C19.482 10.0331 19.5634 9.93691 19.6237 9.82766C19.6841 9.71841 19.7222 9.59828 19.7359 9.47422C19.7497 9.35015 19.7386 9.2246 19.7036 9.10481C19.6685 8.98502 19.61 8.87336 19.5316 8.77628C19.4531 8.6792 19.3562 8.59861 19.2465 8.53918C18.9143 8.35554 18.6112 8.12388 18.3467 7.85168L19.8076 7.00777C19.9194 6.94803 20.018 6.86642 20.0976 6.76781C20.1771 6.6692 20.2361 6.5556 20.2709 6.43375C20.3057 6.31191 20.3156 6.18431 20.3001 6.05854C20.2847 5.93278 20.244 5.81141 20.1807 5.70165C20.1174 5.5919 20.0326 5.496 19.9315 5.41965C19.8303 5.34331 19.7149 5.28807 19.592 5.25723C19.4691 5.2264 19.3412 5.22059 19.216 5.24015C19.0908 5.25971 18.9708 5.30424 18.8632 5.37109L17.4022 6.21457C17.2982 5.84931 17.2487 5.47067 17.2553 5.09094C17.258 4.96658 17.2362 4.8429 17.191 4.72699C17.1459 4.61109 17.0783 4.50523 16.9922 4.4155C16.906 4.32576 16.803 4.25391 16.689 4.20406C16.5751 4.15421 16.4524 4.12734 16.328 4.125H16.3104C16.0627 4.12496 15.8249 4.22213 15.6481 4.39562C15.4713 4.56911 15.3697 4.80505 15.3651 5.0527C15.3518 5.7771 15.4757 6.49747 15.7303 7.17578L11.9452 9.36246V4.99211C12.6604 4.87391 13.3467 4.62124 13.9678 4.24746C14.1825 4.11806 14.3371 3.90865 14.3974 3.66529C14.4578 3.42193 14.419 3.16456 14.2896 2.9498C14.1602 2.73505 13.9508 2.58049 13.7074 2.52013C13.4641 2.45978 13.2067 2.49857 12.9919 2.62797C12.6664 2.82364 12.3136 2.97003 11.9452 3.06238V1.63281C11.9452 1.3821 11.8456 1.14166 11.6683 0.964376C11.4911 0.787095 11.2506 0.6875 10.9999 0.6875C10.7492 0.6875 10.5087 0.787095 10.3315 0.964376C10.1542 1.14166 10.0546 1.3821 10.0546 1.63281V3.06238C9.68615 2.97003 9.33342 2.82364 9.00787 2.62797C8.79311 2.49857 8.53574 2.45978 8.29239 2.52013C8.04903 2.58049 7.83961 2.73505 7.71021 2.9498C7.58081 3.16456 7.54202 3.42193 7.60238 3.66529C7.66273 3.90865 7.81729 4.11806 8.03205 4.24746C8.65312 4.62124 9.33941 4.87391 10.0546 4.99211V9.36246L6.26947 7.17578C6.52449 6.49726 6.64871 5.77658 6.63556 5.05184C6.63095 4.80419 6.52932 4.56825 6.35254 4.39476C6.17575 4.22127 5.93794 4.1241 5.69025 4.12414H5.67178C5.54763 4.12643 5.42515 4.15316 5.31133 4.2028C5.19752 4.25243 5.0946 4.32401 5.00845 4.41343C4.9223 4.50285 4.85461 4.60836 4.80925 4.72395C4.76389 4.83953 4.74174 4.96292 4.74408 5.08707C4.75101 5.46736 4.70163 5.84658 4.59756 6.21242L3.13662 5.37109C3.02904 5.30692 2.90977 5.26477 2.78576 5.24709C2.66174 5.22941 2.53545 5.23655 2.41422 5.26811C2.29299 5.29967 2.17924 5.355 2.07958 5.4309C1.97993 5.5068 1.89635 5.60175 1.83371 5.71024C1.77107 5.81872 1.73061 5.93857 1.71469 6.06282C1.69878 6.18708 1.70771 6.31326 1.74099 6.43402C1.77426 6.55479 1.8312 6.66775 1.90851 6.76632C1.98582 6.86489 2.08195 6.94711 2.19131 7.0082L3.65224 7.85211C3.38779 8.12431 3.0846 8.35597 2.75248 8.53961C2.64272 8.59904 2.54581 8.67963 2.46736 8.77671C2.3889 8.87379 2.33045 8.98545 2.29537 9.10524C2.2603 9.22503 2.24929 9.35058 2.26299 9.47465C2.27669 9.59871 2.31483 9.71883 2.3752 9.82808C2.43557 9.93734 2.51698 10.0335 2.61473 10.1112C2.71247 10.1888 2.82463 10.2463 2.94471 10.2803C3.0648 10.3144 3.19044 10.3243 3.31439 10.3096C3.43833 10.2948 3.55812 10.2556 3.66685 10.1943C4.30113 9.84327 4.86318 9.37526 5.3233 8.81504L9.10927 11L5.32416 13.1854C4.86404 12.6252 4.30199 12.1572 3.66771 11.8061C3.55898 11.7448 3.43919 11.7056 3.31524 11.6909C3.1913 11.6761 3.06566 11.686 2.94557 11.7201C2.82549 11.7541 2.71333 11.8116 2.61559 11.8893C2.51784 11.9669 2.43643 12.0631 2.37606 12.1723C2.31569 12.2816 2.27755 12.4017 2.26385 12.5258C2.25015 12.6498 2.26116 12.7754 2.29623 12.8952C2.33131 13.015 2.38976 13.1266 2.46822 13.2237C2.54667 13.3208 2.64358 13.4014 2.75334 13.4608C3.08546 13.6445 3.38865 13.8761 3.6531 14.1483L2.19131 14.9961C2.08195 15.0572 1.98582 15.1394 1.90851 15.238C1.8312 15.3366 1.77426 15.4495 1.74099 15.5703C1.70771 15.691 1.69878 15.8172 1.71469 15.9415C1.73061 16.0657 1.77107 16.1856 1.83371 16.2941C1.89635 16.4025 1.97993 16.4975 2.07958 16.5734C2.17924 16.6493 2.29299 16.7046 2.41422 16.7362C2.53545 16.7677 2.66174 16.7749 2.78576 16.7572C2.90977 16.7395 3.02904 16.6974 3.13662 16.6332L4.59756 15.7897C4.70161 16.155 4.75113 16.5336 4.74451 16.9134C4.74014 17.1638 4.83533 17.4057 5.00919 17.586C5.18305 17.7663 5.42135 17.8703 5.67178 17.875H5.68939C5.93708 17.875 6.17489 17.7779 6.35168 17.6044C6.52846 17.4309 6.63009 17.195 6.63471 16.9473C6.64802 16.2229 6.52409 15.5025 6.26947 14.8242L10.0546 12.6375V17.0079C9.33941 17.1261 8.65312 17.3788 8.03205 17.7525C7.81729 17.8819 7.66273 18.0914 7.60238 18.3347C7.54202 18.5781 7.58081 18.8354 7.71021 19.0502C7.83961 19.265 8.04903 19.4195 8.29239 19.4799C8.53574 19.5402 8.79311 19.5014 9.00787 19.372C9.33342 19.1764 9.68615 19.03 10.0546 18.9376V20.3672C10.0546 20.6179 10.1542 20.8583 10.3315 21.0356C10.5087 21.2129 10.7492 21.3125 10.9999 21.3125C11.2506 21.3125 11.4911 21.2129 11.6683 21.0356C11.8456 20.8583 11.9452 20.6179 11.9452 20.3672V18.9376C12.3136 19.03 12.6664 19.1764 12.9919 19.372C13.2067 19.5014 13.4641 19.5402 13.7074 19.4799C13.9508 19.4195 14.1602 19.265 14.2896 19.0502C14.419 18.8354 14.4578 18.5781 14.3974 18.3347C14.3371 18.0914 14.1825 17.8819 13.9678 17.7525C13.3467 17.3788 12.6604 17.1261 11.9452 17.0079V12.6375L15.7303 14.8242C15.4753 15.5027 15.3511 16.2234 15.3642 16.9482C15.3689 17.1958 15.4705 17.4318 15.6473 17.6052C15.824 17.7787 16.0619 17.8759 16.3095 17.8759H16.328C16.4522 17.8736 16.5747 17.8468 16.6885 17.7972C16.8023 17.7476 16.9052 17.676 16.9914 17.5866C17.0775 17.4972 17.1452 17.3916 17.1905 17.2761C17.2359 17.1605 17.2581 17.0371 17.2557 16.9129C17.2488 16.5326 17.2982 16.1534 17.4022 15.7876L18.8632 16.6311C18.9708 16.7001 19.0912 16.7467 19.2173 16.7679C19.3434 16.789 19.4725 16.7844 19.5967 16.7543C19.7209 16.7242 19.8378 16.6692 19.9402 16.5926C20.0425 16.516 20.1283 16.4195 20.1923 16.3088C20.2563 16.1981 20.2972 16.0756 20.3125 15.9487C20.3278 15.8217 20.3171 15.693 20.2813 15.5703C20.2454 15.4476 20.185 15.3334 20.1037 15.2348C20.0225 15.1361 19.922 15.0549 19.8085 14.9961Z" fill="#226FE2"/>
</svg>
