<svg xmlns="http://www.w3.org/2000/svg" width="39" height="39" viewBox="0 0 39 39"><g><g><g/><g><path fill="#fff7f7" d="M38.68 19.52c0 10.493-8.507 19-19 19s-19-8.507-19-19 8.507-19 19-19 19 8.507 19 19z"/></g><g><g/><g><g><path fill="#f65e64" d="M12.401 20.443c-.614 1.255.085 1.856 1.669 2.881 1.35.87 3.216 1.187 4.411 1.314l-1.003 1.006c-1.425 1.41-2.775 2.778-3.717 3.725-1.37 1.372.843 3.575 2.217 2.232l3.717-3.736a605.908 605.908 0 0 1 3.717 3.74c1.374 1.348 3.586-.834 2.227-2.23l-3.717-3.726-1.022-1.006c1.214-.127 3.051-.464 4.383-1.314 1.589-1.03 2.282-1.63 1.678-2.886-.366-.712-1.35-1.308-2.658-.278 0 0-1.767 1.411-4.622 1.411s-4.622-1.41-4.622-1.41c-1.308-1.036-2.297-.435-2.658.277z"/></g><g><path fill="#f65e64" d="M13.36 13.353c0-3.501 2.84-6.333 6.319-6.333 3.478 0 6.319 2.832 6.319 6.328 0 3.486-2.841 6.318-6.32 6.318-3.477 0-6.318-2.832-6.318-6.313zm3.216 0a3.111 3.111 0 0 0 3.103 3.11 3.111 3.111 0 0 0 3.103-3.11c0-1.729-1.392-3.125-3.103-3.125-1.711 0-3.103 1.396-3.103 3.125z"/></g></g></g></g></g></svg>