<svg xmlns="http://www.w3.org/2000/svg" width="39" height="39" viewBox="0 0 39 39"><g><g><g/><g><path fill="#fff7f7" d="M38.74 19.52c0 10.493-8.507 19-19 19s-19-8.507-19-19 8.507-19 19-19 19 8.507 19 19z"/></g><g><path fill="#eb5760" d="M29.511 14.992c.16-.503 0-.87-.709-.87h-2.356c-.595 0-.87.321-1.03.664 0 0-1.212 2.928-2.905 4.827-.549.549-.8.732-1.098.732-.16 0-.366-.183-.366-.686v-4.69c0-.594-.183-.869-.686-.869h-3.706c-.366 0-.595.275-.595.549 0 .572.847.71.938 2.31v3.477c0 .755-.137.893-.434.893-.801 0-2.745-2.951-3.912-6.314-.229-.663-.458-.915-1.052-.915H9.22c-.686 0-.8.32-.8.663 0 .618.8 3.73 3.729 7.847 1.944 2.813 4.712 4.323 7.205 4.323 1.51 0 1.693-.343 1.693-.915v-2.127c0-.687.137-.801.618-.801.343 0 .96.183 2.356 1.533 1.601 1.6 1.876 2.333 2.768 2.333h2.356c.686 0 1.007-.343.824-1.007-.206-.663-.984-1.624-1.99-2.767-.55-.641-1.373-1.35-1.625-1.693-.343-.458-.251-.64 0-1.053-.023 0 2.86-4.071 3.157-5.444z"/></g></g></g></svg>